<?xml version="1.0" encoding="UTF-8"?>
<!-- Generated by Pixelmator Pro 4.0 -->
<svg width="1080" height="1080" viewBox="0 0 1080 1080" xmlns="http://www.w3.org/2000/svg">
    <path id="Color-Fill" fill="#ffffff" stroke="none" visibility="hidden" d="M 0 0 L 1080 0 L 1080 1080 L 0 1080 Z"/>
    <path id="Basketball" fill="#c07f40" fill-rule="evenodd" stroke="#2a2926" stroke-width="10" stroke-linecap="round" stroke-linejoin="round" d="M 802.961975 993.788269 C 659.264038 970.188721 524.041443 910.058594 410.266937 819.166443 C 381.05484 878.378906 384.945404 948.558228 420.523468 1004.178955 C 432.330444 1022.896729 444.821045 1041.087769 457.995575 1058.751953 C 484.822113 1062.914917 511.929688 1065.003418 539.077393 1064.99939 C 631.804565 1065.137817 722.892944 1040.557007 802.961975 993.788269 Z M 296.497955 645.799805 C 327.677948 686.404297 362.594666 723.997498 400.790222 758.085938 C 443.068359 704.451782 507.064148 672.467896 575.338989 670.850159 C 750.551514 665.64447 920.11499 607.684937 1061.854614 504.551331 C 1054.208618 392.48999 1010.596436 285.889404 937.504028 200.60321 C 751.050842 227.254517 578.349304 313.903992 445.525177 447.44342 C 386.700836 506.166321 336.523193 572.953003 296.497955 645.799805 Z M 267.950317 337.12323 C 292.034302 230.200073 335.2341 128.506714 395.468994 36.940552 C 291.307892 66.681763 198.909225 127.941223 130.962982 212.305786 C 137.079193 295.45166 156.050827 377.146606 187.201569 454.479065 C 228.387207 427.372131 257.365387 385.25946 267.966553 337.107117 Z M 576.569702 711.454224 C 519.815552 712.814331 466.679291 739.615845 431.852448 784.448486 C 552.813965 882.28064 699.420837 943.156921 854.102844 959.781067 C 982.333435 863.5 1059.325684 713.728638 1063 553.41748 C 919.283752 651.469849 750.489258 706.30603 576.58606 711.437866 Z M 137.348434 477.924866 C 141.979187 476.51123 146.500107 474.898682 150.952118 473.176331 C 123.374352 405.555664 104.660927 334.650879 95.278183 262.227844 C 54.458599 326.991516 28.421824 399.959473 19.021971 475.934509 C 57.23772 489.227295 98.707245 489.924988 137.348434 477.924866 Z M 248.5867 649.402832 C 217.144028 605.754089 189.898117 559.230591 167.212311 510.45343 C 161.342804 512.76886 155.355392 514.893311 149.233856 516.769836 C 126.971138 523.618042 103.813148 527.114563 80.520912 527.144287 C 58.510445 527.146057 36.616756 523.944092 15.5287 517.639099 C 15.20776 525.385498 15.000618 533.168152 15.000618 540.999878 C 14.822359 677.220337 67.881287 808.118408 162.857864 905.768494 C 178.424866 816.499878 207.324066 730.078857 248.5867 649.402832 Z M 399.384735 1046.143555 C 394.916473 1039.437256 390.472656 1032.682129 386.162842 1025.833496 C 341.318207 955.764893 338.018066 866.882446 377.543335 793.681274 C 377.77887 793.230469 378.038818 792.795837 378.278564 792.348999 C 341.197815 759.713745 306.995239 723.947144 276.049805 685.445068 C 237.340057 765.595215 211.230881 851.239136 198.644196 939.35321 C 256.912415 989.246887 325.446625 1025.705811 399.384735 1046.143555 Z M 416.798523 418.733154 C 549.021606 285.809814 719.169556 197.102295 903.854309 164.804504 C 806.183044 69.861877 675.289734 16.825195 539.077393 17.000244 C 510.579102 17.000977 482.127777 19.310059 454.002625 23.90564 C 383.622345 120.11322 333.785828 229.770691 307.59137 346.059692 C 294.235016 406.923218 256.684204 459.730103 203.579529 492.328857 C 222.513107 533.191711 244.810425 572.410034 270.241272 609.578857 C 310.517029 539.814575 359.79187 475.649414 416.798523 418.733154 Z"/>
</svg>
